<?xml version="1.0" standalone="no"?>
<!DOCTYPE svg PUBLIC "-//W3C//DTD SVG 20010904//EN"
 "http://www.w3.org/TR/2001/REC-SVG-20010904/DTD/svg10.dtd">
<svg version="1.0" xmlns="http://www.w3.org/2000/svg"
 width="764.000000pt" height="845.000000pt" viewBox="0 0 764.000000 845.000000"
 preserveAspectRatio="xMidYMid meet">
<metadata>
Created by potrace 1.15, written by Peter Selinger 2001-2017
</metadata>
<g transform="translate(0.000000,845.000000) scale(0.100000,-0.100000)"
fill="#000000" stroke="none">
<path d="M1237 8299 c-57 -57 -71 -145 -64 -393 16 -536 151 -1310 306 -1748
17 -47 31 -91 31 -96 0 -12 -125 -215 -262 -426 -201 -310 -321 -398 -543
-397 -107 1 -202 25 -324 82 -46 21 -86 38 -88 36 -6 -6 85 -205 134 -290 79
-141 178 -254 312 -355 72 -55 287 -160 421 -207 161 -55 213 -84 224 -122 11
-42 -11 -79 -62 -100 -50 -22 -250 -29 -350 -13 -205 32 -447 126 -662 258
-36 22 -66 39 -68 37 -5 -5 77 -180 137 -290 121 -225 239 -383 411 -556 226
-227 428 -353 819 -509 201 -81 251 -114 251 -166 -1 -36 -15 -56 -60 -80 -30
-16 -56 -19 -180 -19 -128 0 -157 4 -249 29 -97 27 -241 80 -304 113 -16 8
-31 13 -33 10 -3 -2 15 -31 39 -63 96 -130 198 -230 319 -310 57 -38 72 -55
108 -120 118 -214 364 -595 510 -789 534 -706 1089 -1200 1750 -1558 l86 -46
114 63 c631 346 1188 837 1685 1481 129 166 363 514 473 701 726 1234 1165
2715 1300 4387 5 65 4 101 -3 106 -10 7 -196 66 -370 117 -132 38 -596 154
-617 154 -22 0 -22 1 2 180 44 335 52 712 16 826 -24 77 -42 88 -125 81 -205
-17 -997 -425 -1436 -741 l-110 -79 -90 12 c-772 104 -880 105 -1611 15 l-211
-27 -204 135 c-510 338 -978 604 -1184 673 -44 15 -108 30 -142 33 -60 5 -63
4 -96 -29z m421 -512 c209 -226 361 -438 463 -642 72 -145 99 -247 100 -371 0
-108 -14 -152 -94 -287 -74 -125 -81 -139 -111 -240 -26 -84 -52 -127 -78
-127 -29 0 -101 96 -158 213 -163 335 -273 871 -287 1397 l-6 224 34 -28 c19
-15 80 -78 137 -139z m4517 -20 c-17 -554 -127 -1098 -291 -1433 -75 -154
-132 -222 -173 -209 -21 6 -42 51 -72 150 -11 39 -54 129 -95 202 -86 149
-104 200 -104 289 0 226 126 489 398 828 112 140 320 358 334 350 5 -3 6 -79
3 -177z m460 -896 c213 -53 474 -126 480 -133 1 -2 -8 -102 -21 -223 -262
-2455 -1272 -4538 -2733 -5638 -107 -81 -315 -220 -406 -271 -27 -16 -64 -37
-81 -47 l-31 -19 -129 78 c-333 200 -582 398 -900 716 -276 277 -483 526 -710
856 -79 115 -233 353 -230 357 1 1 33 -2 71 -7 39 -5 149 -13 245 -19 96 -7
208 -19 249 -27 142 -30 279 -100 437 -220 81 -62 82 -62 72 -31 -13 44 -13
290 1 417 16 137 65 429 101 599 65 309 63 538 -7 765 l-18 60 -135 27 c-331
69 -514 158 -608 296 -55 81 -75 122 -153 319 -106 268 -196 437 -345 647
l-55 78 38 -6 c313 -54 552 -126 694 -210 41 -24 151 -105 244 -180 94 -75
186 -145 205 -155 64 -33 144 -41 276 -29 169 15 215 -1 272 -93 49 -79 98
-291 132 -568 19 -160 44 -519 37 -526 -2 -3 -75 91 -162 206 -158 210 -182
239 -172 204 15 -49 38 -212 48 -339 18 -224 -4 -756 -46 -1094 -8 -63 -12
-117 -10 -121 10 -16 234 -120 305 -142 65 -20 96 -23 235 -23 182 0 212 8
432 108 l115 52 -6 45 c-87 652 -98 1076 -36 1417 10 59 18 109 16 111 -2 2
-66 -81 -142 -184 -77 -103 -149 -199 -161 -213 l-22 -26 -1 80 c0 203 49 602
99 805 34 139 70 218 116 259 55 48 96 56 239 44 204 -17 242 -3 421 148 157
132 303 229 403 268 146 56 370 106 681 150 73 11 135 22 138 24 2 3 -3 26
-11 52 -25 73 -35 167 -37 335 -1 85 -5 169 -8 185 -6 22 -1 40 15 70 75 132
176 415 239 665 44 180 40 169 62 164 10 -2 126 -31 258 -63z"/>
<path d="M2100 5184 c0 -4 23 -31 50 -61 62 -67 121 -167 227 -383 117 -237
153 -273 338 -334 80 -26 302 -76 340 -76 12 0 63 -43 127 -107 73 -73 108
-102 108 -89 0 70 -86 419 -131 533 -43 108 -67 140 -126 168 -69 33 -75 32
-56 -12 30 -73 -6 -167 -78 -203 -104 -54 -227 9 -246 125 -7 45 20 118 54
145 14 11 24 22 22 24 -2 2 -35 9 -73 15 -92 16 -172 50 -260 109 -99 68 -296
165 -296 146z"/>
<path d="M5460 5156 c-84 -35 -159 -75 -223 -118 -77 -52 -146 -83 -232 -103
-38 -9 -75 -18 -82 -20 -7 -3 -1 -16 17 -35 36 -38 54 -92 47 -136 -26 -160
-238 -197 -315 -54 -23 45 -25 85 -6 147 6 23 6 23 -37 8 -72 -26 -107 -70
-159 -206 -36 -93 -120 -450 -120 -507 0 -10 45 28 108 89 l107 106 105 18
c138 23 297 68 369 105 88 44 130 100 243 324 98 195 157 291 226 369 40 43
30 46 -48 13z"/>
<path d="M3302 2324 c-29 -20 -57 -75 -72 -144 -15 -69 -25 -589 -12 -609 17
-24 31 -3 57 84 15 47 28 85 31 85 2 0 25 -16 51 -36 121 -93 402 -202 492
-191 104 13 316 101 436 181 l65 44 16 -56 c29 -106 36 -122 49 -122 7 0 15
14 19 31 15 78 -3 580 -25 653 -15 55 -59 96 -102 96 -18 0 -97 -22 -174 -49
-264 -93 -422 -90 -678 13 -99 40 -121 43 -153 20z"/>
</g>
</svg>
