<svg width="764" height="845" xmlns="http://www.w3.org/2000/svg" preserveAspectRatio="xMidYMid meet">
 <metadata>Created by potrace 1.15, written by Peter Selinger 2001-2017</metadata>

 <g>
  <title>background</title>
  <rect fill="none" id="canvas_background" height="402" width="582" y="-1" x="-1"/>
 </g>
 <g>
  <title>Layer 1</title>
  <g id="svg_1" fill="white" transform="translate(0, 845) scale(0.1, -0.1)">
   <path id="svg_2" d="m1147,8189c-57,-57 -71,-145 -64,-393c16,-536 151,-1310 306,-1748c17,-47 31,-91 31,-96c0,-12 -125,-215 -262,-426c-201,-310 -321,-398 -543,-397c-107,1 -202,25 -324,82c-46,21 -86,38 -88,36c-6,-6 85,-205 134,-290c79,-141 178,-254 312,-355c72,-55 287,-160 421,-207c161,-55 213,-84 224,-122c11,-42 -11,-79 -62,-100c-50,-22 -250,-29 -350,-13c-205,32 -447,126 -662,258c-36,22 -66,39 -68,37c-5,-5 77,-180 137,-290c121,-225 239,-383 411,-556c226,-227 428,-353 819,-509c201,-81 251,-114 251,-166c-1,-36 -15,-56 -60,-80c-30,-16 -56,-19 -180,-19c-128,0 -157,4 -249,29c-97,27 -241,80 -304,113c-16,8 -31,13 -33,10c-3,-2 15,-31 39,-63c96,-130 198,-230 319,-310c57,-38 72,-55 108,-120c118,-214 364,-595 510,-789c534,-706 1089,-1200 1750,-1558l86,-46l114,63c631,346 1188,837 1685,1481c129,166 363,514 473,701c726,1234 1165,2715 1300,4387c5,65 4,101 -3,106c-10,7 -196,66 -370,117c-132,38 -596,154 -617,154c-22,0 -22,1 2,180c44,335 52,712 16,826c-24,77 -42,88 -125,81c-205,-17 -997,-425 -1436,-741l-110,-79l-90,12c-772,104 -880,105 -1611,15l-211,-27l-204,135c-510,338 -978,604 -1184,673c-44,15 -108,30 -142,33c-60,5 -63,4 -96,-29zm421,-512c209,-226 361,-438 463,-642c72,-145 99,-247 100,-371c0,-108 -14,-152 -94,-287c-74,-125 -81,-139 -111,-240c-26,-84 -52,-127 -78,-127c-29,0 -101,96 -158,213c-163,335 -273,871 -287,1397l-6,224l34,-28c19,-15 80,-78 137,-139zm4517,-20c-17,-554 -127,-1098 -291,-1433c-75,-154 -132,-222 -173,-209c-21,6 -42,51 -72,150c-11,39 -54,129 -95,202c-86,149 -104,200 -104,289c0,226 126,489 398,828c112,140 320,358 334,350c5,-3 6,-79 3,-177zm460,-896c213,-53 474,-126 480,-133c1,-2 -8,-102 -21,-223c-262,-2455 -1272,-4538 -2733,-5638c-107,-81 -315,-220 -406,-271c-27,-16 -64,-37 -81,-47l-31,-19l-129,78c-333,200 -582,398 -900,716c-276,277 -483,526 -710,856c-79,115 -233,353 -230,357c1,1 33,-2 71,-7c39,-5 149,-13 245,-19c96,-7 208,-19 249,-27c142,-30 279,-100 437,-220c81,-62 82,-62 72,-31c-13,44 -13,290 1,417c16,137 65,429 101,599c65,309 63,538 -7,765l-18,60l-135,27c-331,69 -514,158 -608,296c-55,81 -75,122 -153,319c-106,268 -196,437 -345,647l-55,78l38,-6c313,-54 552,-126 694,-210c41,-24 151,-105 244,-180c94,-75 186,-145 205,-155c64,-33 144,-41 276,-29c169,15 215,-1 272,-93c49,-79 98,-291 132,-568c19,-160 44,-519 37,-526c-2,-3 -75,91 -162,206c-158,210 -182,239 -172,204c15,-49 38,-212 48,-339c18,-224 -4,-756 -46,-1094c-8,-63 -12,-117 -10,-121c10,-16 234,-120 305,-142c65,-20 96,-23 235,-23c182,0 212,8 432,108l115,52l-6,45c-87,652 -98,1076 -36,1417c10,59 18,109 16,111c-2,2 -66,-81 -142,-184c-77,-103 -149,-199 -161,-213l-22,-26l-1,80c0,203 49,602 99,805c34,139 70,218 116,259c55,48 96,56 239,44c204,-17 242,-3 421,148c157,132 303,229 403,268c146,56 370,106 681,150c73,11 135,22 138,24c2,3 -3,26 -11,52c-25,73 -35,167 -37,335c-1,85 -5,169 -8,185c-6,22 -1,40 15,70c75,132 176,415 239,665c44,180 40,169 62,164c10,-2 126,-31 258,-63z"/>
   <path id="svg_3" d="m2010,5074c0,-4 23,-31 50,-61c62,-67 121,-167 227,-383c117,-237 153,-273 338,-334c80,-26 302,-76 340,-76c12,0 63,-43 127,-107c73,-73 108,-102 108,-89c0,70 -86,419 -131,533c-43,108 -67,140 -126,168c-69,33 -75,32 -56,-12c30,-73 -6,-167 -78,-203c-104,-54 -227,9 -246,125c-7,45 20,118 54,145c14,11 24,22 22,24c-2,2 -35,9 -73,15c-92,16 -172,50 -260,109c-99,68 -296,165 -296,146z"/>
   <path id="svg_4" d="m5370,5046c-84,-35 -159,-75 -223,-118c-77,-52 -146,-83 -232,-103c-38,-9 -75,-18 -82,-20c-7,-3 -1,-16 17,-35c36,-38 54,-92 47,-136c-26,-160 -238,-197 -315,-54c-23,45 -25,85 -6,147c6,23 6,23 -37,8c-72,-26 -107,-70 -159,-206c-36,-93 -120,-450 -120,-507c0,-10 45,28 108,89l107,106l105,18c138,23 297,68 369,105c88,44 130,100 243,324c98,195 157,291 226,369c40,43 30,46 -48,13z"/>
   <path id="svg_5" d="m3212,2214c-29,-20 -57,-75 -72,-144c-15,-69 -25,-589 -12,-609c17,-24 31,-3 57,84c15,47 28,85 31,85c2,0 25,-16 51,-36c121,-93 402,-202 492,-191c104,13 316,101 436,181l65,44l16,-56c29,-106 36,-122 49,-122c7,0 15,14 19,31c15,78 -3,580 -25,653c-15,55 -59,96 -102,96c-18,0 -97,-22 -174,-49c-264,-93 -422,-90 -678,13c-99,40 -121,43 -153,20z"/>
  </g>
 </g>
</svg>